<?xml version="1.0" encoding="UTF-8"?>
<!DOCTYPE svg PUBLIC "-//W3C//DTD SVG 1.1//EN" "http://www.w3.org/Graphics/SVG/1.1/DTD/svg11.dtd">
<!-- Creator: CorelDRAW 2018 (64-Bit) -->
<svg xmlns="http://www.w3.org/2000/svg" xml:space="preserve" width="3.12992in" height="2.11153in" version="1.1" style="shape-rendering:geometricPrecision; text-rendering:geometricPrecision; image-rendering:optimizeQuality; fill-rule:evenodd; clip-rule:evenodd"
viewBox="0 0 3129.93 2111.54"
 xmlns:xlink="http://www.w3.org/1999/xlink">
 <defs>
  <style type="text/css">
   <![CDATA[
    .str0 {stroke:white;stroke-width:47.25;stroke-miterlimit:2.61313}
    .fil4 {fill:none;fill-rule:nonzero}
    .fil3 {fill:#0090FC;fill-rule:nonzero}
    .fil2 {fill:#0090FC;fill-rule:nonzero}
    .fil0 {fill:#041B29;fill-rule:nonzero}
    .fil5 {fill:#AAD174;fill-rule:nonzero}
    .fil7 {fill:white;fill-rule:nonzero}
    .fil1 {fill:white;fill-rule:nonzero}
    .fil6 {fill:black;fill-rule:nonzero;fill-opacity:0.200000}
   ]]>
  </style>
 </defs>
 <g id="Layer_x0020_1">
  <metadata id="CorelCorpID_0Corel-Layer"/>
  <path class="fil0" d="M2474.68 417.91c0,-44.28 -16.97,-85.34 -54.81,-108.43 -39.65,-24.18 -386.31,-237.62 -564.98,-282.84 -66.83,-16.91 -169,-26.65 -280.06,-26.65 -111.09,0 -213.24,9.74 -280.06,26.65 -177.94,45.02 -538.17,257.88 -578.8,282.02 -38.57,22.87 -60.72,64.4 -60.72,109.24l0 860.92c0,325.75 654.16,707.89 855.11,817.25 18.98,10.33 39.19,15.45 60.1,15.45 20.9,0 34.87,-5.11 53.85,-15.45 139.7,-76.02 495.82,-283.92 700.1,-513.08l11.06 -7.12 0.61 -6.02c83.13,-96.37 138.62,-196.1 138.62,-291.03l0 -860.92z"/>
  <path class="fil1" d="M2326.1 522.09c0,-37.05 -14.2,-71.4 -45.86,-90.72 -33.17,-20.23 -323.22,-198.81 -472.71,-236.65 -55.91,-14.15 -141.4,-22.3 -234.32,-22.3 -92.95,0 -178.41,8.15 -234.32,22.3 -148.88,37.67 -450.28,215.77 -484.27,235.97 -32.27,19.13 -50.81,53.88 -50.81,91.4l0 720.32c0,272.55 547.32,592.27 715.45,683.78 15.88,8.65 32.79,12.93 50.29,12.93 17.49,0 29.18,-4.28 45.05,-12.93 116.89,-63.61 414.85,-237.55 585.76,-429.28l9.25 -5.96 0.51 -5.04c69.55,-80.63 115.98,-164.08 115.98,-243.5l0 -720.32z"/>
  <g id="_2755977634512">
   <g>
    <path class="fil2" d="M1376.55 1397.66c26.75,14.13 59.93,3.93 74.07,-22.84 14.13,-26.76 3.93,-59.91 -22.85,-74.06 -21.96,-11.62 -48.1,-6.6 -64.65,10.33l44.62 27.61c5.78,3.05 8.02,10.24 4.93,16.06 -3.07,5.82 -10.25,8.02 -16.07,4.94l-47.91 -21.3c-4.68,23.19 5.87,47.64 27.86,59.25z"/>
    <path class="fil2" d="M1408.72 1352.68c1.9,-3.62 0.51,-8.09 -3.09,-9.98 -3.62,-1.93 -8.09,-0.54 -9.97,3.07 -1.92,3.6 -0.54,8.06 3.07,9.97 3.61,1.91 8.07,0.53 9.99,-3.06z"/>
   </g>
   <path class="fil3" d="M1509.98 995.12l-551.19 0c-17.54,0 -31.89,14.35 -31.89,31.9l0 277.8c0,17.55 12.43,39.07 27.61,47.83l406.06 234.43 153.71 88.74c15.2,8.78 27.61,1.61 27.61,-15.94l0 -335.92 0 -296.93c0,-17.55 -14.34,-31.9 -31.9,-31.9zm-24.85 360.53l0 0 -8.79 2.09c-0.63,5.37 -1.81,10.72 -3.64,15.98l7 5.7c1.35,1.11 1.8,3.28 0.97,4.82l-5.35 10.12c-0.8,1.54 -2.85,2.39 -4.52,1.91l-8.66 -2.58c-3.3,4.47 -7.07,8.48 -11.15,12l3.2 8.46c0.63,1.63 -0.07,3.73 -1.56,4.65l-9.68 6.07c-1.47,0.94 -3.66,0.66 -4.87,-0.6l-6.22 -6.58c-5.03,2.18 -10.26,3.8 -15.65,4.82l-1.46 8.94c-0.27,1.73 -1.91,3.2 -3.67,3.27l-11.42 0.43c-1.74,0.04 -3.51,-1.3 -3.91,-2.99l-2.12 -8.77c-5.35,-0.63 -10.72,-1.81 -15.97,-3.66l-5.71 7.01c-1.09,1.36 -3.27,1.79 -4.81,0.98l-10.12 -5.36c-1.52,-0.81 -2.37,-2.86 -1.88,-4.52l2.57 -8.68c-4.47,-3.3 -8.48,-7.06 -12.02,-11.15l-8.44 3.2c-1.62,0.65 -3.73,-0.05 -4.67,-1.54l-6.07 -9.68c-0.94,-1.47 -0.64,-3.67 0.62,-4.87l6.54 -6.22c-2.14,-5.03 -3.78,-10.28 -4.81,-15.66l-8.93 -1.44c-1.74,-0.26 -3.2,-1.92 -3.26,-3.68l-0.45 -11.42c-0.05,-1.76 1.29,-3.51 2.97,-3.92l8.81 -2.09c0.4,-3.54 1.15,-7.06 2.07,-10.54l-57.49 -25.57c-6.15,8.35 -13.18,15.79 -20.8,22.4l6.01 15.76c1.15,3.07 -0.16,6.97 -2.91,8.7l-18.07 11.36c-2.76,1.74 -6.87,1.21 -9.11,-1.16l-11.63 -12.27c-9.37,4.06 -19.16,7.07 -29.2,9.02l-2.69 16.67c-0.51,3.22 -3.61,5.96 -6.86,6.07l-21.32 0.81c-3.27,0.1 -6.57,-2.41 -7.31,-5.56l-3.93 -16.41c-10.04,-1.15 -20.05,-3.38 -29.84,-6.8l-10.64 13.08c-2.07,2.52 -6.11,3.35 -8.99,1.82l-18.87 -9.98c-2.88,-1.52 -4.49,-5.33 -3.55,-8.46l4.8 -16.17c-8.34,-6.17 -15.83,-13.19 -22.42,-20.82l-15.76 6c-3.06,1.16 -6.96,-0.14 -8.69,-2.91l-11.37 -18.07c-1.74,-2.77 -1.2,-6.85 1.15,-9.1l12.27 -11.63c-4.06,-9.38 -7.07,-19.16 -9.01,-29.2l-16.68 -2.68c-3.22,-0.52 -5.96,-3.62 -6.08,-6.87l-0.78 -21.32c-0.14,-3.28 2.38,-6.56 5.53,-7.32l16.43 -3.92c1.15,-10.04 3.37,-20.03 6.8,-29.85l-13.06 -10.65c-2.54,-2.05 -3.35,-6.09 -1.82,-8.97l9.96 -18.89c1.51,-2.89 5.33,-4.47 8.47,-3.53l16.14 4.79c6.17,-8.35 13.19,-15.82 20.83,-22.42l-6 -15.76c-1.17,-3.06 0.15,-6.96 2.91,-8.7l18.08 -11.36c2.77,-1.71 6.85,-1.21 9.1,1.17l11.61 12.25c9.37,-4.03 19.17,-7.07 29.21,-9l2.7 -16.69c0.52,-3.21 3.61,-5.95 6.88,-6.07l21.33 -0.8c3.27,-0.13 6.54,2.37 7.28,5.56l3.95 16.39c10.02,1.15 20.02,3.39 29.82,6.8l10.65 -13.07c2.05,-2.51 6.11,-3.35 8.99,-1.81l18.87 9.97c2.89,1.53 4.47,5.34 3.57,8.47l-4.81 16.16c8.34,6.15 15.82,13.17 22.42,20.83l15.76 -6.02c1.9,-0.72 3.96,-0.25 5.8,0.7 1.11,0.57 2.24,1.17 2.91,2.2l11.34 18.08c1.75,2.76 1.22,6.85 -1.16,9.08l-12.28 11.64c4.08,9.39 7.1,19.18 9.02,29.2l16.7 2.69c3.22,0.52 5.94,3.61 6.07,6.88l0.81 21.33c0.11,3.25 -2.39,6.56 -5.56,7.3l-16.42 3.93c-1.15,10.01 -3.37,19.99 -6.8,29.78l53.78 33.29c2.35,-2.68 4.61,-5.52 7.27,-7.81l-3.21 -8.47c-0.63,-1.6 0.07,-3.71 1.57,-4.64l9.68 -6.08c1.48,-0.94 3.69,-0.66 4.88,0.63l6.22 6.54c5.02,-2.17 10.26,-3.79 15.64,-4.8l1.45 -8.94c0.27,-1.73 1.92,-3.19 3.67,-3.28l11.43 -0.41c1.75,-0.08 3.5,1.27 3.91,2.98l2.1 8.77c5.39,0.63 10.74,1.81 15.98,3.66l5.7 -7.01c1.13,-1.36 3.29,-1.78 4.81,-0.96l10.11 5.33c1.55,0.83 2.42,2.87 1.91,4.53l-2.56 8.65c4.44,3.32 8.46,7.09 11.98,11.18l8.46 -3.21c1.64,-0.64 3.73,0.06 4.65,1.55l6.08 9.69c0.93,1.46 0.65,3.67 -0.61,4.88l-6.57 6.2c2.19,5.02 3.8,10.3 4.81,15.67l8.96 1.43c1.71,0.28 3.18,1.94 3.23,3.69l0.44 11.42c0.06,1.75 -1.28,3.52 -2.97,3.93z"/>
   <path class="fil2" d="M1514.26 250.64l-559.76 323.17c-15.19,8.78 -27.61,30.3 -27.61,47.83l0 277.8c0,17.54 14.35,31.89 31.89,31.89l195.58 0 355.62 0c17.56,0 31.9,-14.36 31.9,-31.89l0 -51.41 0 -581.47c0,-17.52 -12.41,-24.71 -27.61,-15.93zm-162.44 612.74l0 0 -231.25 0c-30.91,0 -58.93,-12.22 -79.69,-32l122.84 0c4.2,5.59 10.59,9.31 17.89,10.24 1.08,0.15 2.13,0.39 3.25,0.39 2.73,0 5.32,-0.52 7.81,-1.3 10.83,-3.35 18.77,-13.33 18.77,-25.28 0,-14.68 -11.89,-26.57 -26.58,-26.57 -8.66,0 -16.29,4.2 -21.14,10.63l-146.44 0c-7.82,-15.57 -12.33,-33.11 -12.33,-51.74 0,-15.57 3.19,-30.39 8.76,-43.96l150.01 0c4.85,6.44 12.48,10.65 21.14,10.65 14.69,0 26.58,-11.89 26.58,-26.58 0,-14.69 -11.89,-26.57 -26.58,-26.57 -8.66,0 -16.29,4.2 -21.14,10.62l-130.29 0c16.27,-18.68 38.37,-32.15 63.55,-37.37 26.09,-50.31 78.61,-84.71 139.22,-84.71 49.28,0 93.22,22.76 121.95,58.3l-117.58 0c-4.86,-6.44 -12.48,-10.65 -21.14,-10.65 -14.67,0 -26.57,11.89 -26.57,26.58 0,14.68 11.9,26.57 26.57,26.57 8.66,0 16.28,-4.2 21.14,-10.62l153.21 0c39.51,15.39 68.44,51.92 73,95.68l-226.21 0c-4.86,-6.41 -12.48,-10.62 -21.14,-10.62 -14.67,0 -26.57,11.9 -26.57,26.58 0,14.67 11.9,26.58 26.57,26.58 8.66,0 16.28,-4.2 21.14,-10.64l225.08 0c0,0.01 0,0.03 -0.02,0.03 -9.42,54.37 -56.72,95.76 -113.8,95.76z"/>
   <path class="fil2" d="M2193.06 573.81l-559.76 -323.17c-15.2,-8.78 -27.61,-1.59 -27.61,15.93l0 632.88c0,17.54 14.34,31.89 31.9,31.89l283.29 0 267.9 0c17.53,0 31.89,-14.36 31.89,-31.89l0 -7.32 0 -270.48c0,-17.54 -12.44,-39.06 -27.61,-47.83zm-184.11 33.98l0 0 52.8 -30.5c2.71,-1.53 6.15,-0.64 7.69,2.05 1.58,2.7 0.65,6.14 -2.04,7.71l-52.84 30.5c-0.87,0.49 -1.83,0.74 -2.81,0.74 -1.91,0 -3.84,-1 -4.86,-2.81 -1.56,-2.69 -0.64,-6.14 2.06,-7.69zm-53.26 -49.15l0 0 30.48 -52.83c1.54,-2.69 4.98,-3.61 7.68,-2.07 2.69,1.56 3.61,4.99 2.07,7.69l-30.51 52.83c-1.03,1.81 -2.93,2.82 -4.85,2.82 -0.97,0 -1.91,-0.24 -2.83,-0.76 -2.66,-1.58 -3.6,-4.99 -2.04,-7.69zm-70.73 -76.93l0 0c0,-3.11 2.53,-5.63 5.61,-5.63 3.14,0 5.65,2.52 5.65,5.63l0 60.98c0,3.1 -2.51,5.63 -5.65,5.63 -3.09,0 -5.61,-2.53 -5.61,-5.63l0 -60.98zm-97.64 22.05l0 0c2.71,-1.53 6.15,-0.64 7.69,2.05l30.51 52.82c1.54,2.69 0.62,6.12 -2.07,7.69 -0.89,0.51 -1.86,0.74 -2.8,0.74 -1.95,0 -3.84,-1 -4.88,-2.79l-30.48 -52.81c-1.54,-2.69 -0.62,-6.15 2.05,-7.69zm-73.52 83.28l0 0c-2.7,-1.57 -3.61,-5.01 -2.06,-7.71 1.55,-2.69 5,-3.58 7.68,-2.05l52.8 30.5c2.7,1.54 3.62,5 2.06,7.67 -1.03,1.82 -2.92,2.81 -4.89,2.81 -0.93,0 -1.91,-0.23 -2.79,-0.76l-52.81 -30.47zm178.97 318.06l0 0c-0.51,0 -1.04,0.06 -1.52,0.06 -19.08,0 -40.88,-9 -40.88,-22.53l18.37 0 63.34 0c0,13.16 -20.63,22 -39.3,22.47zm54.04 -37.15l0 0c0,3.73 -3.26,6.77 -7.33,6.77l-79.22 0 -18.56 0c-4.06,0 -7.32,-3.03 -7.32,-6.77l0 -4.5c0,-3.53 2.95,-6.36 6.7,-6.65 0.22,-0.02 0.39,-0.11 0.62,-0.11l97.78 0c4.07,0 7.33,3.02 7.33,6.77l0 4.5zm49.11 -124.28l0 0c-29.84,53.74 -37.77,42.96 -42.63,72.2 -1.11,6.59 -2.32,11.8 -3.87,15.91 2.31,1.21 3.83,3.32 3.83,5.71l0 4.51c0,3.74 -3.66,6.76 -8.18,6.76l-108.98 0c-2.22,0 -4.2,-0.74 -5.67,-1.92 -0.11,-0.07 -0.15,-0.13 -0.23,-0.2l-0.46 -0.44 0.03 -0.09c-1.07,-1.14 -1.84,-2.54 -1.84,-4.11l0 -4.51c0,-2.39 1.53,-4.5 3.81,-5.71 -1.55,-4.11 -2.75,-9.3 -3.88,-15.91 -4.88,-29.24 -12.76,-18.43 -42.6,-72.2 -10,-18.06 -16.22,-38.61 -16.22,-60.7 0,-67.14 54.43,-121.54 121.54,-121.54 51.98,0 96.22,32.67 113.59,78.56 5.07,13.38 7.98,27.83 7.98,42.98 0,22.09 -6.22,42.65 -16.22,60.7z"/>
   <g>
    <path class="fil4" d="M1658.43 1195.67l-3.3 -5.97c0.65,2.28 1.83,4.28 3.3,5.97z"/>
   </g>
   <path class="fil5" d="M1655.08 1189.59l0.06 0.11c-0.02,-0.04 -0.04,-0.08 -0.04,-0.11l-0.02 0z"/>
   <path class="fil6" d="M1655.08 1189.59l0.06 0.11c-0.02,-0.04 -0.04,-0.08 -0.04,-0.11l-0.02 0z"/>
   <path class="fil2" d="M2188.78 995.12l-551.19 0c-17.56,0 -31.9,14.35 -31.9,31.9l0 632.85c0,17.55 12.42,24.72 27.61,15.94l151.19 -87.29 69.89 -40.34 131.26 -75.79 207.42 -119.74c2.24,-1.3 4.37,-2.92 6.47,-4.7 12.08,-10.39 21.14,-28.17 21.14,-43.13l0 -45.79 0 -232c0,-17.55 -14.36,-31.9 -31.89,-31.9zm-156.02 341.82l0 0c0,25.08 -62.67,45.33 -140.02,45.33 -77.33,0 -140.02,-20.3 -140.02,-45.33l0 -96.7 124.91 31.13c4.98,1.23 10,1.85 15.1,1.85 5.08,0 10.17,-0.63 15.11,-1.85l124.9 -31.13 0 96.7zm88.42 -137.43l0 0 -19.01 4.7 0 122.03c4.69,5.08 7.66,12.56 7.66,20.93 0,15.34 -10.08,27.81 -22.46,27.81 -12.39,0 -22.46,-12.47 -22.46,-27.81 0,-8.33 2.97,-15.85 7.65,-20.93l0 -114.62 -39.8 9.89 -127.81 31.87c-4.04,1.04 -8.09,1.53 -12.2,1.53 -4.08,0 -8.2,-0.54 -12.2,-1.53l-127.82 -31.87 -88.41 -21.99c-2.46,-0.62 -4.32,-2.09 -5.89,-3.84 -1.47,-1.69 -2.65,-3.69 -3.3,-5.97l-0.06 -0.11 0.02 0c-2.15,-7.98 0.93,-18 9.23,-20.07l216.22 -53.96c4.06,-1.04 8.11,-1.52 12.2,-1.52 4.11,0 8.2,0.56 12.2,1.52l216.23 53.96c4.2,1.04 6.93,4.25 8.44,8.09 3.22,8.2 0.52,19.65 -8.44,21.9z"/>
   <g>
    <path class="fil2" d="M1148.99 1215.37c-3.41,6.45 -0.94,14.45 5.51,17.85 6.45,3.42 14.44,0.96 17.85,-5.5 3.41,-6.46 0.95,-14.45 -5.5,-17.87 -6.45,-3.39 -14.45,-0.93 -17.86,5.52z"/>
    <path class="fil2" d="M1237.47 1288.96l-91.04 -40.46c-14.91,-7.87 -20.58,-26.32 -12.72,-41.21 7.88,-14.88 26.32,-20.57 41.22,-12.71l84.7 52.46c11.6,-44.82 -8.43,-93.34 -51.15,-115.91 -49.96,-26.41 -111.84,-7.34 -138.25,42.6 -26.4,49.96 -7.31,111.85 42.63,138.24 42.69,22.59 94.08,11.82 124.61,-23z"/>
   </g>
  </g>
  <g id="_2755977643344">
   <g>
    <path class="fil0 str0" d="M508.7 1768.41c-185.81,-29.58 -278.39,-47.59 -462.3,-90.26 70.43,-71.6 104.89,-107.86 172.22,-181.17 -31.55,-95.85 -46.48,-143.84 -74.54,-239.92 172.08,39.92 258.7,56.81 432.56,84.48 -27.17,170.75 -40.77,256.09 -67.94,426.86z"/>
   </g>
   <g>
    <path class="fil0 str0" d="M2602.61 1771.31c193.3,-30.22 289.65,-48.8 480.91,-93.17 -70.44,-71.6 -104.9,-107.86 -172.23,-181.17 31.56,-95.85 46.48,-143.84 74.55,-239.92 -178.95,41.51 -269.1,58.94 -449.97,87.22 26.69,170.83 40.02,256.19 66.74,427.03z"/>
   </g>
   <path class="fil0 str0" d="M2829.07 1855.19c-860.84,140.78 -1686.61,139.59 -2547.05,-3.59 32.42,-169.86 48.66,-254.78 81.08,-424.61 806.04,134.21 1579.63,135.15 2386.05,3.37 31.94,169.92 47.95,254.87 79.92,424.83z"/>
  </g>
  <path class="fil7" d="M557.08 1607.2c-10.1,-1.83 -18.01,-0.09 -23.7,5.24 -5.71,5.34 -9,13.85 -9.87,25.4 22.16,3.94 44.54,7.95 66.93,11.97 -0.22,-11.72 -3.12,-21.18 -9.22,-28.71 -5.96,-7.37 -14.06,-12.06 -24.13,-13.9zm6.8 147.79c-28.08,-4.87 -50.27,-16.4 -66.06,-34.65 -15.81,-18.28 -23.7,-41.65 -23.7,-70.15 0,-29.34 7.23,-50.7 21.94,-64.04 14.69,-13.32 34.89,-17.58 60.78,-12.81 24.8,4.56 43.82,15.13 57.72,31.48 13.75,16.17 20.63,36.41 20.63,60.98 0,7.66 0,15.28 0,22.89 -37.75,-6.15 -75.27,-12.76 -112.8,-19.42 0.44,13.6 4.61,24.9 12.07,33.82 7.46,8.91 18,14.56 31.6,16.91 10.54,1.83 20.63,2.42 29.84,1.89 9.44,-0.55 19.32,-2.26 29.63,-5.48 0,12.22 0,24.44 0,36.62 -8.56,2.85 -17.34,4.56 -26.99,4.94 -9.44,0.37 -21.07,-0.61 -34.67,-2.97zm301.5 40.22c-16.24,-2.01 -32.26,-4.06 -48.28,-6.07 0,-16.11 0,-32.23 0,-48.34 0,-16.12 0,-32.27 0,-48.39 -30.28,-3.98 -60.56,-7.95 -90.85,-12.48 0,16.2 0,32.44 0,48.63 0,16.2 0,32.4 0,48.56 -16.24,-2.39 -32.47,-4.85 -48.49,-7.2 0,-37.67 0,-75.34 0,-113.01 0,-37.63 0,-75.3 0,-112.96 16.02,2.59 32.26,5.19 48.49,7.82 0,14.74 0,29.51 0,44.24 0,14.69 0,29.43 0,44.16 30.29,4.6 60.57,8.62 90.85,12.64 0,-14.65 0,-29.3 0,-43.94 0,-14.65 0,-29.34 0,-44.03 16.02,2.18 32.04,4.39 48.28,6.61 0,37.3 0,74.59 0,111.88 0,37.29 0,74.59 0,111.88zm197.93 20.05c-5.7,-18.08 -11.19,-36.16 -16.68,-54.24 -27.87,-2.43 -55.74,-5.36 -83.39,-8.24 -5.48,17.12 -10.97,34.23 -16.46,51.35 -17.56,-1.8 -35.11,-3.64 -52.44,-5.4 13.38,-35.99 26.77,-71.95 40.15,-107.86 13.38,-35.87 26.99,-71.65 40.6,-107.44 19.75,2.18 39.5,4.39 59.47,6.49 13.38,38.34 26.99,76.64 40.37,114.89 13.38,38.26 26.99,76.43 40.59,114.64 -17.56,-1.38 -34.89,-2.76 -52.22,-4.19zm-28.09 -94.64c-7.68,-24.61 -14.05,-44.03 -18.21,-58.01 -4.17,-14.02 -7.02,-22.73 -7.9,-25.99 -1.75,-6.44 -3.29,-11.68 -3.95,-15.32 -1.75,6.32 -5.26,17.2 -10.09,32.73 -4.83,15.53 -11.41,35.66 -19.53,60.44 19.74,2.1 39.72,4.23 59.69,6.15zm332.67 112.76c-5.71,-17.7 -11.19,-35.41 -16.68,-53.07 -27.87,-0.96 -55.74,-2.09 -83.39,-3.69 -5.7,17.2 -11.19,34.45 -16.68,51.65 -17.56,-1 -34.89,-2.01 -52.22,-2.97 13.39,-36.25 26.78,-72.45 40.16,-108.61 13.39,-36.16 26.99,-72.29 40.6,-108.41 19.74,1.21 39.5,2.05 59.46,2.76 13.39,37.41 27,74.75 40.38,112.09 13.39,37.37 26.99,74.71 40.59,112.04 -17.56,-0.63 -34.89,-1.21 -52.22,-1.8zm-28.09 -92.63c-7.68,-24.06 -14.05,-42.9 -18.21,-56.46 -4.17,-13.6 -7.02,-22.02 -7.9,-25.2 -1.75,-6.28 -3.29,-11.3 -3.95,-14.9 -1.76,6.41 -5.26,17.42 -10.09,33.07 -4.83,15.65 -11.41,35.91 -19.53,60.85 19.75,1.13 39.72,1.93 59.69,2.64zm176.43 98.99c-27.21,-0.31 -47.62,-7.78 -61.22,-22.31 -13.6,-14.52 -20.41,-36.25 -20.41,-65 0,-28.63 7.42,-50.27 22.17,-65.17 14.87,-15.02 35.99,-22.29 63.63,-21.97 20.41,0.22 38.4,4.27 54.64,12.05 -4.83,11.76 -9.66,23.56 -14.27,35.32 -7.46,-2.96 -14.27,-5.41 -20.84,-7.36 -6.37,-1.89 -12.95,-2.95 -19.31,-3.02 -25.01,-0.26 -37.31,16.53 -37.31,50.43 0,32.86 12.3,49.45 37.31,49.73 9,0.09 17.57,-0.91 25.45,-3.22 7.69,-2.25 15.58,-5.9 23.48,-10.8 0,13.1 0,26.24 0,39.34 -7.68,4.64 -15.58,7.83 -23.48,9.54 -7.89,1.71 -17.78,2.57 -29.84,2.43zm204.96 -4.39c-3.07,-7.5 -6.15,-15.02 -9.22,-22.56 -0.44,0 -0.88,0 -1.1,0.04 -8.12,9.88 -16.48,16.7 -25.02,20.59 -8.35,3.81 -19.53,5.93 -33.13,6.07 -16.89,0.18 -30.06,-4.32 -39.72,-13.44 -9.65,-9.12 -14.48,-22.22 -14.48,-39.26 0,-17.87 6.59,-31.17 19.53,-39.8 12.96,-8.65 32.48,-13.64 58.81,-14.82 10.09,-0.45 20.19,-0.88 30.28,-1.3 0,-2.47 0,-4.94 0,-7.41 0,-17.08 -9,-25.51 -27.21,-25.28 -14.04,0.18 -30.5,4.48 -49.37,12.85 -5.27,-10.25 -10.53,-20.51 -15.8,-30.76 20.19,-10.38 42.57,-15.69 67.15,-16.03 23.48,-0.32 41.47,4.24 53.98,13.57 12.5,9.33 18.65,24.02 18.65,44.15 0,18.75 0,37.46 0,56.13 0,18.71 0,37.41 0,56.12 -11.19,0.38 -22.38,0.76 -33.35,1.13zm-14.05 -77.64c-6.15,0.3 -12.29,0.57 -18.43,0.84 -13.82,0.61 -24.32,3.12 -30.94,7.62 -6.76,4.58 -10.32,11.3 -10.32,20.34 0,12.94 7.91,19.33 23.26,19.13 10.97,-0.14 19.95,-3.33 26.55,-9.54 6.56,-6.18 9.87,-14.36 9.87,-24.49 0,-4.64 0,-9.25 0,-13.89zm152.08 75.67c-20.62,1.09 -36.65,-6.11 -48.5,-21.09 -11.85,-14.98 -17.56,-36.08 -17.56,-63.41 0,-27.62 5.86,-49.36 17.78,-65.21 12,-15.96 28.54,-24.06 49.59,-25.24 21.96,-1.24 38.84,5.81 50.47,21.64 0.44,-0.04 0.88,-0.09 1.54,-0.13 -2.41,-12.47 -3.73,-23.6 -3.73,-33.52 0,-18.04 0,-36.12 0,-54.2 16.02,-1 32.04,-2.05 48.06,-3.05 0,39.26 0,78.56 0,117.78 0,39.21 0,78.52 0,117.73 -12.29,0.67 -24.57,1.43 -36.65,2.1 -3.07,-7.08 -6.15,-14.19 -9.22,-21.26 -0.88,0.04 -1.54,0.08 -2.19,0.13 -10.76,17.2 -27.43,26.59 -49.59,27.75zm16.67 -37.71c12.28,-0.73 21.29,-4.69 26.99,-11.89 5.7,-7.19 8.82,-19 9.22,-35.45 0.04,-1.63 0,-3.26 0,-4.93 0,-18.17 -2.8,-31.02 -8.56,-38.46 -5.86,-7.58 -15.36,-10.79 -28.3,-10.01 -10.75,0.65 -18.86,5.46 -24.8,14.48 -5.91,8.96 -9,21.72 -9,38.33 0,16.58 3.08,28.88 9,36.87 5.93,8 14.49,11.7 25.45,11.06zm203.42 -120.17c-10.31,0.88 -18.24,4.68 -23.92,11.35 -5.72,6.72 -9,15.78 -9.87,27.29 22.38,-1.93 44.76,-3.77 67.15,-5.69 -0.22,-11.43 -3.34,-19.88 -9.44,-25.65 -5.96,-5.65 -13.83,-8.15 -23.92,-7.29zm6.58 142.52c-28.07,2.27 -50.27,-3.54 -66.05,-17.29 -15.82,-13.78 -23.7,-34.41 -23.7,-61.95 0,-28.38 7.24,-50.91 21.94,-67.68 14.69,-16.74 34.89,-26.26 60.78,-28.5 24.8,-2.15 44.06,3.04 57.72,15.19 13.76,12.24 20.85,30.26 20.85,54.41 0,7.54 0,15.03 0,22.52 -37.75,3.98 -75.49,7.12 -113.02,10.21 0.44,13.1 4.62,23.06 12.07,29.84 7.47,6.81 18,9.65 31.6,8.54 10.54,-0.85 20.65,-2.74 30.06,-5.69 9.23,-2.9 19.09,-7.41 29.41,-13.19 0,12.02 0,23.99 0,35.96 -8.34,4.89 -17.3,9.02 -26.77,11.84 -9.63,2.87 -21.07,4.67 -34.89,5.78zm267.06 -32.19c-16.02,2.05 -32.04,4.06 -47.84,6.07 0,-16.66 0,-33.36 0,-50.02 0,-16.66 0,-33.35 0,-50.06 0,-12.31 -2.2,-21.35 -6.36,-26.96 -4.17,-5.6 -10.75,-7.76 -19.97,-6.53 -12.28,1.65 -21.08,7.11 -26.56,16.44 -5.49,9.37 -8.33,24.11 -8.33,44.16 0,13.43 0,26.83 0,40.22 0,13.39 0,26.79 0,40.18 -16.02,1.68 -32.04,3.31 -47.84,4.98 0,-28.42 0,-56.84 0,-85.26 0,-28.42 0,-56.84 0,-85.26 12.07,-1.34 24.14,-2.68 36.43,-4.1 2.19,7.11 4.39,14.15 6.58,21.18 0.88,-0.09 1.76,-0.21 2.64,-0.3 4.61,-8.37 11.47,-15.14 20.41,-20.72 8.83,-5.51 19.09,-9.17 30.5,-10.72 26.11,-3.55 43.89,2.35 53.33,17.87 1.31,-0.21 2.63,-0.33 4.17,-0.54 4.61,-8.62 11.61,-15.78 20.63,-21.39 9.19,-5.73 19.54,-9.16 30.94,-10.93 19.98,-3.09 34.85,-0.53 44.99,7.82 10.27,8.47 15.36,23.69 15.36,45.83 0,18.8 0,37.59 0,56.34 0,18.79 0,37.54 0,56.29 -16.02,2.39 -32.04,4.82 -47.84,7.16 0,-16.74 0,-33.57 0,-50.31 0,-16.74 0,-33.53 0,-50.31 0,-12.44 -2.11,-21.5 -6.37,-27 -4.3,-5.55 -10.98,-7.59 -19.97,-6.36 -11.85,1.61 -20.5,6.81 -26.33,15.82 -5.79,8.94 -8.56,22.39 -8.56,40.18 0,14.36 0,28.76 0,43.11 0,14.36 0,28.72 0,43.07zm132.98 -191.99c17.33,-2.76 34.67,-5.57 52.22,-8.45 5.49,15.23 10.98,30.55 16.46,45.79 5.49,15.27 11.05,30.61 16.68,45.91 2.93,7.96 4.83,17.71 5.92,29.13 0.22,-0.04 0.44,-0.08 0.88,-0.17 1.09,-10.84 3.42,-21.31 6.58,-31.35 5.39,-17.16 10.75,-34.57 16.02,-51.85 5.26,-17.29 10.97,-34.7 16.46,-52.07 17.12,-3.18 34.23,-6.32 51.35,-9.46 -12.51,35.16 -25.02,70.32 -37.31,105.31 -12.29,34.99 -24.59,69.94 -36.86,104.81 -6.81,19.33 -16.5,34.58 -29.19,45.75 -12.54,11.05 -27.21,18.08 -43.89,20.59 -8.32,1.26 -16.46,1.51 -24.35,0.96 0,-12.48 0,-24.94 0,-37.46 5.7,0.5 12.07,0.24 18.87,-0.76 8.33,-1.22 15.81,-4.85 22.17,-11.09 6.36,-6.24 11.24,-14.81 14.7,-25.74 0.93,-2.95 1.76,-5.98 2.85,-9 -11.63,-26.74 -23.48,-53.37 -34.89,-80.27 -11.41,-26.92 -23.26,-53.7 -34.67,-80.58z"/>
 </g>
</svg>
